# xmcd
#
# Track frame offsets:
#	150
#	19676
#	32940
#	54140
#	75906
#	96968
#	115410
#	132587
#	152712
#	167982
#	183002
#	198299
#
# Disc length: 2918 seconds
#
# Revision: 0
# Processed by: cddbd v1.5.2PL0 Copyright (c) Steve Scherf et al.
# Submitted via: EasyCDDAExtractor 11.1.0.1
#
DISCID=920b640c
DTITLE=Courtyard Hounds
DYEAR=2010
DGENRE=Alternative
TTITLE0=Skyline
TTITLE1=The Coast
TTITLE2=Delight
TTITLE3=See You In The Spring
TTITLE4=Ain't No Sun
TTITLE5=Fairytale
TTITLE6=I Miss You
TTITLE7=Gracefully
TTITLE8=April's Love
TTITLE9=Then Again
TTITLE10=It Didn't Make A Sound
TTITLE11=Fear of Wasted Time
EXTD=
EXTT0=
EXTT1=
EXTT2=
EXTT3=
EXTT4=
EXTT5=
EXTT6=
EXTT7=
EXTT8=
EXTT9=
EXTT10=
EXTT11=
PLAYORDER=
